<svg xmlns="http://www.w3.org/2000/svg" version="1.1" viewBox="-5.0 -10.0 110.0 135.0">
 <path d="m28.305 19.73-4.3477-2.5078c-0.80078-0.46094-1.7539-0.46094-2.5508 0-0.80078 0.46094-1.2773 1.2891-1.2773 2.2109v5.0195c0 0.92188 0.47656 1.7461 1.2773 2.2109 0.39844 0.23047 0.83594 0.34766 1.2773 0.34766 0.4375 0 0.875-0.11719 1.2773-0.34766l4.3477-2.5078c0.80078-0.46094 1.2773-1.2891 1.2773-2.2109 0-0.92187-0.47656-1.7461-1.2773-2.2109zm-5.2695 4.1133v-3.8047l3.2969 1.9023zm11.16 36.703c0 0.80078-0.64844 1.4492-1.4492 1.4492h-16.113c-0.80078 0-1.4492-0.64844-1.4492-1.4492s0.64844-1.4492 1.4492-1.4492h16.113c0.80078 0 1.4492 0.64844 1.4492 1.4492zm-19.012-27.602c0-0.80078 0.64844-1.4492 1.4492-1.4492h16.113c0.80078 0 1.4492 0.64844 1.4492 1.4492 0 0.80078-0.64844 1.4492-1.4492 1.4492h-16.113c-0.80078 0-1.4492-0.64844-1.4492-1.4492zm0 4.1758c0-0.80078 0.64844-1.4492 1.4492-1.4492h16.113c0.80078 0 1.4492 0.64844 1.4492 1.4492 0 0.80078-0.64844 1.4492-1.4492 1.4492h-16.113c-0.80078 0-1.4492-0.64844-1.4492-1.4492zm19.012 27.383c0 0.80078-0.64844 1.4492-1.4492 1.4492h-16.113c-0.80078 0-1.4492-0.64844-1.4492-1.4492 0-0.80078 0.64844-1.4492 1.4492-1.4492h16.113c0.80078 0 1.4492 0.64844 1.4492 1.4492zm-2.6797-51.105h-13.648c-1.9258 0-3.4961 1.5664-3.4961 3.4961v10.094c0 1.9258 1.5664 3.4961 3.4961 3.4961h13.648c1.9258 0 3.4961-1.5664 3.4961-3.4961v-10.094c0-1.9258-1.5664-3.4961-3.4961-3.4961zm0.59375 13.59c0 0.32812-0.26562 0.59375-0.59375 0.59375h-13.648c-0.32813 0-0.59375-0.26562-0.59375-0.59375v-10.094c0-0.32812 0.26562-0.59375 0.59375-0.59375h13.648c0.32812 0 0.59375 0.26562 0.59375 0.59375zm0.98438 13.852h-16.805c-1.0586 0-1.918 0.85938-1.918 1.918v13.25c0 1.0547 0.85938 1.918 1.918 1.918h16.805c1.0586 0 1.918-0.85938 1.918-1.918v-13.25c0-1.0547-0.85938-1.918-1.918-1.918zm-0.98438 14.184h-14.836v-11.281h14.836zm-10.699-0.92188c0.39844 0.23047 0.83594 0.34766 1.2773 0.34766 0.4375 0 0.875-0.11719 1.2773-0.34766l4.3477-2.5078c0.80078-0.46094 1.2773-1.2891 1.2773-2.2109 0-0.92187-0.47656-1.7461-1.2773-2.2109l-4.3477-2.5078c-0.80078-0.46094-1.7539-0.46094-2.5508 0-0.80078 0.46094-1.2773 1.2891-1.2773 2.2109v5.0195c0 0.92188 0.47656 1.7461 1.2773 2.2109zm1.625-6.6211 3.2969 1.9023-3.2969 1.9023zm34.938-34.082h-16.805c-1.0586 0-1.918 0.85937-1.918 1.918v13.25c0 1.0547 0.85938 1.918 1.918 1.918h16.805c1.0586 0 1.918-0.85938 1.918-1.918v-13.25c0-1.0547-0.85938-1.918-1.918-1.918zm-0.98438 14.184h-14.836v-11.281h14.836zm26.723 13.258h-16.805c-1.0586 0-1.918 0.85938-1.918 1.918v13.25c0 1.0547 0.85938 1.918 1.918 1.918h16.805c1.0586 0 1.918-0.85938 1.918-1.918v-13.25c0-1.0547-0.85938-1.918-1.918-1.918zm-0.98438 14.184h-14.836v-11.281h14.836zm-17.059-22.078c0-0.80078 0.64844-1.4492 1.4492-1.4492h16.113c0.80078 0 1.4492 0.64844 1.4492 1.4492 0 0.80078-0.64844 1.4492-1.4492 1.4492h-16.113c-0.80078 0-1.4492-0.64844-1.4492-1.4492zm0 4.1758c0-0.80078 0.64844-1.4492 1.4492-1.4492h16.113c0.80078 0 1.4492 0.64844 1.4492 1.4492 0 0.80078-0.64844 1.4492-1.4492 1.4492h-16.113c-0.80078 0-1.4492-0.64844-1.4492-1.4492zm6.3594 16.98c0.39844 0.23047 0.83594 0.34766 1.2773 0.34766 0.4375 0 0.875-0.11719 1.2773-0.34766l4.3477-2.5078c0.80078-0.46094 1.2773-1.2891 1.2773-2.2109 0-0.92187-0.47656-1.7461-1.2773-2.2109l-4.3477-2.5078c-0.80078-0.46094-1.7539-0.46094-2.5508 0-0.80078 0.46094-1.2773 1.2891-1.2773 2.2109v5.0195c0 0.92188 0.47656 1.75 1.2773 2.2109zm1.625-6.6211 3.2969 1.9023-3.2969 1.9023zm10.059-34.082h-16.805c-1.0586 0-1.918 0.85937-1.918 1.918v13.25c0 1.0547 0.85938 1.918 1.918 1.918h16.805c1.0586 0 1.918-0.85938 1.918-1.918v-13.25c0-1.0547-0.85938-1.918-1.918-1.918zm-0.98438 14.184h-14.836v-11.281h14.836zm10.492 39.836v-55.977c1.3594-0.57031 2.3164-1.9141 2.3164-3.4766 0-2.0781-1.6914-3.7656-3.7656-3.7656h-83.539c-2.0781 0-3.7656 1.6914-3.7656 3.7656 0 1.5625 0.95703 2.9062 2.3164 3.4766v55.98c-1.3594 0.57031-2.3164 1.9141-2.3164 3.4766 0 2.0781 1.6914 3.7656 3.7656 3.7656h25.555l-11.285 18.945c-0.26562 0.44922-0.27344 1.0039-0.015625 1.4609 0.25781 0.45313 0.73828 0.73438 1.2617 0.73438h5.75c0.51172 0 0.98438-0.26953 1.2461-0.70703l12.168-20.43h3.2109v19.691c0 0.80078 0.64844 1.4492 1.4492 1.4492h4.8438c0.80078 0 1.4492-0.64844 1.4492-1.4492v-19.691h3.2109l12.168 20.43c0.26172 0.44141 0.73437 0.70703 1.2461 0.70703h5.75c0.52344 0 1.0039-0.28125 1.2617-0.73438 0.25781-0.45312 0.25391-1.0117-0.015625-1.4609l-11.285-18.945h25.555c2.0781 0 3.7656-1.6914 3.7656-3.7656 0-1.5625-0.95703-2.9062-2.3164-3.4766zm-64.543 25.48h-2.375l10.863-18.238h2.375zm22.297 0h-1.9414v-18.238h1.9414zm22.727 0h-2.375l-10.863-18.238h2.375zm18.07-21.137h-83.539c-0.47656 0-0.86719-0.38672-0.86719-0.86719 0-0.47656 0.38672-0.86719 0.86719-0.86719h83.539c0.47656 0 0.86719 0.38672 0.86719 0.86719 0 0.47656-0.38672 0.86719-0.86719 0.86719zm-82.086-4.6328v-55.398h80.637v55.395zm82.086-58.297h-83.539c-0.47656 0-0.86719-0.38672-0.86719-0.86719 0-0.47656 0.38672-0.86719 0.86719-0.86719h83.539c0.47656 0 0.86719 0.38672 0.86719 0.86719 0 0.47656-0.38672 0.86719-0.86719 0.86719zm-32.695 55.672c0 0.80078-0.64844 1.4492-1.4492 1.4492h-16.113c-0.80078 0-1.4492-0.64844-1.4492-1.4492 0-0.80078 0.64844-1.4492 1.4492-1.4492h16.113c0.80078 0 1.4492 0.64844 1.4492 1.4492zm25.605-3.957c0 0.80078-0.64844 1.4492-1.4492 1.4492h-16.113c-0.80078 0-1.4492-0.64844-1.4492-1.4492s0.64844-1.4492 1.4492-1.4492h16.113c0.80078 0 1.4492 0.64844 1.4492 1.4492zm-12.652-33.887c0.39844 0.23047 0.83594 0.34766 1.2773 0.34766 0.4375 0 0.875-0.11719 1.2773-0.34766l4.3477-2.5078c0.80078-0.46094 1.2773-1.2891 1.2773-2.2109s-0.47656-1.7461-1.2773-2.2109l-4.3477-2.5078c-0.80078-0.46094-1.7539-0.46094-2.5508 0-0.80078 0.46094-1.2773 1.2891-1.2773 2.2109v5.0195c0 0.92188 0.47656 1.75 1.2773 2.2109zm1.625-6.6211 3.2969 1.9023-3.2969 1.9023zm-27.363 34.062c0.39844 0.23047 0.83594 0.34766 1.2773 0.34766 0.4375 0 0.875-0.11719 1.2773-0.34766l4.3477-2.5078c0.80078-0.46094 1.2773-1.2891 1.2773-2.2109 0-0.92187-0.47656-1.7461-1.2773-2.2109l-4.3477-2.5078c-0.80078-0.46094-1.7539-0.46094-2.5508 0-0.80078 0.46094-1.2773 1.2891-1.2773 2.2109v5.0195c0 0.92188 0.47656 1.7461 1.2773 2.2109zm1.625-6.6211 3.2969 1.9023-3.2969 1.9023zm11.16 13.066c0 0.80078-0.64844 1.4492-1.4492 1.4492h-16.113c-0.80078 0-1.4492-0.64844-1.4492-1.4492s0.64844-1.4492 1.4492-1.4492h16.113c0.80078 0 1.4492 0.64844 1.4492 1.4492zm-1.1016-19.707h-16.805c-1.0586 0-1.918 0.85938-1.918 1.918v13.25c0 1.0547 0.85938 1.918 1.918 1.918h16.805c1.0586 0 1.918-0.85938 1.918-1.918v-13.25c0-1.0547-0.85938-1.918-1.918-1.918zm-0.98438 14.184h-14.836v-11.281h14.836zm27.691 9.4805c0 0.80078-0.64844 1.4492-1.4492 1.4492h-16.113c-0.80078 0-1.4492-0.64844-1.4492-1.4492 0-0.80078 0.64844-1.4492 1.4492-1.4492h16.113c0.80078 0 1.4492 0.64844 1.4492 1.4492zm-38.391-37.844c0.39844 0.23047 0.83594 0.34766 1.2773 0.34766 0.4375 0 0.875-0.11719 1.2773-0.34766l4.3477-2.5078c0.80078-0.46094 1.2773-1.2891 1.2773-2.2109s-0.47656-1.7461-1.2773-2.2109l-4.3477-2.5078c-0.80078-0.46094-1.7539-0.46094-2.5508 0-0.80078 0.46094-1.2773 1.2891-1.2773 2.2109v5.0195c0 0.92188 0.47656 1.7461 1.2773 2.2109zm1.625-6.6211 3.2969 1.9023-3.2969 1.9023zm-7.8516 12.906c0-0.80078 0.64844-1.4492 1.4492-1.4492h16.113c0.80078 0 1.4492 0.64844 1.4492 1.4492 0 0.80078-0.64844 1.4492-1.4492 1.4492h-16.113c-0.80078 0-1.4492-0.64844-1.4492-1.4492zm0 4.1758c0-0.80078 0.64844-1.4492 1.4492-1.4492h16.113c0.80078 0 1.4492 0.64844 1.4492 1.4492 0 0.80078-0.64844 1.4492-1.4492 1.4492h-16.113c-0.80078 0-1.4492-0.64844-1.4492-1.4492z"/>
<text x="0.0" y="117.5" font-size="5.0" font-weight="bold" font-family="Arbeit Regular, Helvetica, Arial-Unicode, Arial, Sans-serif" fill="#000000">Created by krisna arga muria</text><text x="0.0" y="122.5" font-size="5.0" font-weight="bold" font-family="Arbeit Regular, Helvetica, Arial-Unicode, Arial, Sans-serif" fill="#000000">from Noun Project</text></svg>